HIERARCHY
ROOT Hips
{
	OFFSET 0.000000 0.000000 0.000000 
	CHANNELS 6 Xposition Yposition Zposition Zrotation Yrotation Xrotation
	JOINT LeftUpLeg
	{
		OFFSET 1.363060 -1.794630 0.839290 
		CHANNELS 3 Zrotation Yrotation Xrotation
		JOINT LeftLeg
		{
			OFFSET 2.448110 -6.726130 0.000000 
			CHANNELS 3 Zrotation Yrotation Xrotation
			JOINT LeftFoot
			{
				OFFSET 2.562200 -7.039590 0.000000 
				CHANNELS 3 Zrotation Yrotation Xrotation
				JOINT LeftToeBase
				{
					OFFSET 0.157640 -0.433110 2.322550 
					CHANNELS 3 Zrotation Yrotation Xrotation
					End Site
					{
						OFFSET 0.000000 0.000000 0.000000 
					}
				}
			}
		}
	}
	JOINT RightUpLeg
	{
		OFFSET -1.305520 -1.794630 0.839290 
		CHANNELS 3 Zrotation Yrotation Xrotation
		JOINT RightLeg
		{
			OFFSET -2.542530 -6.985550 0.000000 
			CHANNELS 3 Zrotation Yrotation Xrotation
			JOINT RightFoot
			{
				OFFSET -2.568260 -7.056230 0.000000 
				CHANNELS 3 Zrotation Yrotation Xrotation
				JOINT RightToeBase
				{
					OFFSET -0.164730 -0.452590 2.363150 
					CHANNELS 3 Zrotation Yrotation Xrotation
					End Site
					{
						OFFSET 0.000000 0.000000 0.000000 
					}
				}
			}
		}
	}
	JOINT Spine
	{
		OFFSET 0.028270 2.035590 -0.193380 
		CHANNELS 3 Zrotation Yrotation Xrotation
		JOINT Spine1
		{
			OFFSET 0.056720 2.048850 -0.042750 
			CHANNELS 3 Zrotation Yrotation Xrotation
			JOINT Neck1
			{
				OFFSET -0.054170 1.746240 0.172020 
				CHANNELS 3 Zrotation Yrotation Xrotation
				JOINT Head
				{
					OFFSET 0.104070 1.761360 -0.123970 
					CHANNELS 3 Zrotation Yrotation Xrotation
					End Site
					{
						OFFSET 0.000000 0.000000 0.000000 
					}
				}
			}
			JOINT LeftArm
			{
				OFFSET 3.362410 1.200890 -0.311210 
				CHANNELS 3 Zrotation Yrotation Xrotation
				JOINT LeftForeArm
				{
					OFFSET 4.983000 -0.000000 -0.000000 
					CHANNELS 3 Zrotation Yrotation Xrotation
					JOINT LeftHand
					{
						OFFSET 3.483560 -0.000000 -0.000000 
						CHANNELS 3 Zrotation Yrotation Xrotation
						JOINT LeftHandIndex1
						{
							OFFSET 0.715260 -0.000000 -0.000000 
							CHANNELS 3 Zrotation Yrotation Xrotation
							End Site
							{
								OFFSET 0.000000 0.000000 0.000000 
							}
						}
					}
				}
			}
			JOINT RightArm
			{
				OFFSET -3.136600 1.374050 -0.404650 
				CHANNELS 3 Zrotation Yrotation Xrotation
				JOINT RightForeArm
				{
					OFFSET -5.241900 -0.000000 -0.000000 
					CHANNELS 3 Zrotation Yrotation Xrotation
					JOINT RightHand
					{
						OFFSET -3.444170 -0.000000 -0.000000 
						CHANNELS 3 Zrotation Yrotation Xrotation
						JOINT RightHandIndex1
						{
							OFFSET -0.622530 -0.000000 -0.000000 
							CHANNELS 3 Zrotation Yrotation Xrotation
							End Site
							{
								OFFSET 0.000000 0.000000 0.000000 
							}
						}
					}
				}
			}
		}
	}
}
MOTION
Frames: 7
Frame Time: 0.041667
-0.137779 28.814622 -9.716552 77.242989 -88.216781 -74.658303 -20.746151 7.139720 -24.565337 2.301559 8.995025 30.392718 -3.984727 17.393470 -11.837988 0.099100 -2.029800 -5.588100 26.484641 15.094056 -6.553363 -2.192930 -6.387043 25.641668 3.818447 -18.572180 -21.225217 -0.282100 -3.416300 9.439900 -7.660443 2.745776 11.717840 2.519326 1.461251 -7.278964 -31.731111 -18.342231 -23.933098 -8.310700 -6.755100 -9.853000 -80.616268 -4.235919 -16.826217 7.169497 -10.520616 -0.572641 -1.310214 -0.524351 20.556544 -7.125000 0.000000 0.000000 67.134106 1.003072 28.448897 -19.786967 25.839985 -6.001199 0.556791 0.326676 22.482117 7.125000 0.000000 0.000000 
-0.139420 28.812401 -9.726303 64.636138 -88.611282 -61.755904 -20.389458 7.090480 -24.731212 2.200717 8.945577 30.030952 -4.029851 17.587493 -12.145458 0.095600 -1.993500 -5.487700 27.036631 14.988297 -6.788076 -2.217310 -6.394986 25.751536 3.848665 -18.717739 -21.303136 -0.274200 -3.368300 9.305800 -7.887555 3.105112 11.068363 2.189080 1.642685 -6.979726 -31.989681 -20.990176 -27.027378 -8.326500 -7.749300 -12.087400 -80.221194 -4.191444 -17.683159 7.118381 -10.438997 -0.566033 -1.280279 -0.494793 22.086928 -7.125000 0.000000 0.000000 67.373187 1.017265 27.951714 -19.775499 25.781661 -6.002828 0.502884 0.268592 23.173441 7.125000 0.000000 0.000000 
-0.145696 28.806608 -9.732676 55.962472 -88.409736 -52.974726 -20.622310 7.154389 -24.665600 2.125831 8.845838 29.606818 -4.279157 18.333454 -11.706102 0.211600 -2.961500 -8.171700 27.020503 14.868469 -6.835742 -2.225531 -6.395739 25.795510 3.865347 -18.878819 -21.549225 -0.281700 -3.413700 9.432800 -8.015086 3.318022 10.708568 2.192913 1.776281 -6.846217 -31.775135 -22.089261 -28.782794 -8.199800 -8.132800 -13.255600 -80.134444 -4.006544 -18.477639 7.131994 -10.474689 -0.569183 -1.262601 -0.501548 23.296351 -7.125000 0.000000 0.000000 67.315184 0.979686 27.987518 -19.800090 25.810863 -6.028830 0.475650 0.255356 23.454295 7.125000 0.000000 0.000000 
-0.159213 28.800332 -9.734221 51.048956 -87.830418 -48.162287 -21.067421 6.996535 -24.185962 2.043414 8.679721 29.105491 -4.506597 19.032969 -11.367619 0.360300 -3.856200 -10.672600 26.675542 14.451904 -6.786891 -2.231873 -6.409740 25.843496 3.841576 -18.909126 -21.787596 -0.286400 -3.441400 9.510300 -8.255383 3.388563 10.643080 2.319062 1.830426 -6.741478 -31.270800 -22.820485 -30.178904 -7.951400 -8.383400 -14.130600 -80.207697 -3.782111 -18.133569 7.175004 -10.531416 -0.576530 -1.270547 -0.520639 22.218407 -7.125000 0.000000 0.000000 67.213197 1.088661 28.499254 -19.794415 25.789922 -6.025521 0.477074 0.281804 23.218162 7.125000 0.000000 0.000000 
-0.169737 28.794539 -9.735959 44.154162 -87.414900 -41.430555 -21.122512 6.668899 -23.648340 1.927381 8.508141 28.555979 -4.590794 19.322924 -11.501909 0.348900 -3.795400 -10.501700 26.630027 13.872184 -6.618256 -2.210529 -6.350563 25.710772 3.815236 -18.863507 -21.870545 -0.295500 -3.495600 9.661800 -8.420720 3.438833 10.713996 2.304888 1.867551 -6.664880 -30.852563 -23.370331 -31.280078 -7.772700 -8.586900 -14.839300 -80.234603 -3.623567 -18.485704 7.210306 -10.596872 -0.583323 -1.257474 -0.511223 22.401529 -7.125000 0.000000 0.000000 67.192495 1.370124 29.090401 -19.765634 25.710343 -5.982936 0.519793 0.339264 22.890245 7.125000 0.000000 0.000000 
-0.178717 28.791546 -9.742910 36.724751 -87.146538 -34.063724 -20.950019 6.280724 -23.248588 1.818626 8.369112 28.027325 -4.760698 19.860452 -11.441139 0.295800 -3.497400 -9.666800 26.850027 13.515193 -6.370056 -2.165378 -6.235276 25.436095 3.856574 -19.042788 -22.012782 -0.305200 -3.551600 9.818400 -8.087879 3.435130 10.516435 2.311871 1.902057 -6.628245 -30.263782 -24.084605 -32.916166 -7.459300 -8.807500 -15.873100 -80.366305 -3.299574 -19.147184 7.271369 -10.700917 -0.592972 -1.238087 -0.501796 23.230580 -7.125000 0.000000 0.000000 67.020270 1.490303 29.621306 -19.729857 25.638641 -5.939958 0.569750 0.369550 22.616801 7.125000 0.000000 0.000000 
-0.190786 28.823987 -9.752179 29.643260 -86.883174 -26.948459 -19.758864 3.733360 -22.102422 1.587056 8.220859 27.689172 -3.648898 17.026349 -15.291139 0.144900 2.453100 6.759500 27.164395 13.348445 -6.035274 -2.090501 -6.069515 25.016316 3.867493 -19.206725 -22.340960 -0.336600 -3.728300 10.313400 -7.662702 3.424965 10.268150 2.320133 1.936577 -6.603235 -29.592781 -24.621334 -34.354492 -7.084200 -8.953700 -16.729100 -80.541199 -2.862482 -17.732093 7.374866 -10.819654 -0.607622 -1.255663 -0.538798 20.626241 -7.125000 0.000000 0.000000 66.878780 1.657833 29.746838 -19.679086 25.559548 -5.910588 0.558404 0.359805 22.965297 7.125000 0.000000 0.000000 
